# xmcd
#
# Track frame offsets: 
#        150
#        23705
#        42394
#        56233
#        62754
#        82058
#        95906
#        114628
#        119638
#        142673
#        148579
#        160465
#        165611
#        172040
#        190701
#        215794
#        229138
#
# Disc length: 3619 seconds
#
# Revision: 0
# Processed by: cddbd v1.5.2PL0 Copyright (c) Steve Scherf et al.
# Submitted via: ExactAudioCopy v1.3
#
DISCID=020e2111
DTITLE=Frank Ocean - Blonde
DYEAR=2016
DGENRE=R&B
TTITLE0=Nikes
TTITLE1=Ivy
TTITLE2=Pink and White
TTITLE3=Be Yourself
TTITLE4=Solo
TTITLE5=Skyline To
TTITLE6=Self Control
TTITLE7=Good Guy
TTITLE8=Nights
TTITLE9=Solo (Reprise)
TTITLE10=Pretty Sweet
TTITLE11=Facebook Story
TTITLE12=Close to You
TTITLE13=White Ferrari
TTITLE14=Seigfried
TTITLE15=Godspeed
TTITLE16=Futura Free
EXTD=
EXTT0=
EXTT1=
EXTT2=
EXTT3=
EXTT4=
EXTT5=
EXTT6=
EXTT7=
EXTT8=
EXTT9=
EXTT10=
EXTT11=
EXTT12=
EXTT13=
EXTT14=
EXTT15=
EXTT16=
PLAYORDER=
